<svg width="100" height="58" viewBox="0 0 100 58" fill="none" xmlns="http://www.w3.org/2000/svg">
<path d="M98.7974 22.8686C96.5771 27.1703 94.3161 31.4514 92.0602 35.7377C88.8917 41.7596 85.7029 47.7737 82.5497 53.8033C81.6499 55.5235 80.5232 56.9917 78.4814 57.1768C78.1602 57.2051 77.839 57.2308 77.5178 57.2591H42.2695C39.8377 57.2591 37.4033 57.2539 34.9715 57.2539C33.9901 57.2488 33.9748 57.2076 34.4923 56.2306C40.661 44.5777 46.8272 32.9248 52.9908 21.2718C54.0104 18.9474 55.132 16.6847 56.7711 14.7229C57.5919 13.7381 58.5987 13.2547 59.858 13.1827C63.702 12.9667 67.5485 13.0567 71.395 13.0413C78.5553 13.013 85.7105 13.0361 92.8683 13.0696C94.701 13.0773 96.4981 13.3035 97.8415 14.8C99.7431 16.911 100.164 20.2151 98.7974 22.8686Z" fill="url(#paint0_linear_372_2589)"/>
<path d="M22.4146 0.023027C27.3088 0.023027 32.2056 0.0255982 37.0997 0.0204557C38.2366 0.0204557 39.371 0.0821657 40.4543 0.447283C42.073 0.992388 43.3245 2.00032 44.13 3.55078C46.516 8.15332 48.907 12.7533 51.3158 17.343C51.6931 18.0629 51.5911 18.6852 51.2343 19.364C47.1456 27.1574 43.0722 34.9612 38.9835 42.7572C36.9341 46.6681 34.8617 50.5661 32.7944 54.4667C31.6397 56.6445 29.7483 57.6859 27.6759 57.2874C26.1668 56.9968 25.1651 56.0506 24.459 54.7341C23.0213 52.0471 21.5811 49.3628 20.1638 46.6629C13.9518 34.8352 7.7448 23.0049 1.54295 11.1745C0.7196 9.60608 -0.0272745 8.01705 0.000765131 6.16575C0.0466482 3.05967 1.83609 0.858683 4.85672 0.259582C5.72085 0.0873082 6.59263 -0.000114296 7.47205 -0.00268555C12.4555 -0.000114296 17.4338 -0.000114296 22.4146 -0.000114296C22.4146 0.00759946 22.4146 0.0153132 22.4146 0.023027ZM71.0889 54.9321C70.4771 53.6825 69.7022 52.5125 69.0598 51.2783C66.0621 45.5187 63.1638 39.7077 60.0693 34.0021C58.1932 30.5489 56.3732 27.0649 54.4639 23.6348C54.0153 22.8326 53.8012 21.8555 52.9906 21.2718C46.8269 32.9248 40.6582 44.5777 34.4921 56.2306C33.9771 57.2076 33.9924 57.2514 34.9713 57.2539C37.4031 57.2539 39.8374 57.2591 42.2692 57.2591H71.4712C71.8918 56.3977 71.4304 55.6366 71.0889 54.9321Z" fill="url(#paint1_linear_372_2589)"/>
<defs>
<linearGradient id="paint0_linear_372_2589" x1="97.8648" y1="14.7423" x2="46.8082" y2="50.3402" gradientUnits="userSpaceOnUse">
<stop stop-color="#60BE88"/>
<stop offset="0.3266" stop-color="#5FBC87"/>
<stop offset="0.4442" stop-color="#5CB582"/>
<stop offset="0.5281" stop-color="#56AA79"/>
<stop offset="0.5959" stop-color="#4D996D"/>
<stop offset="0.654" stop-color="#42835D"/>
<stop offset="0.7055" stop-color="#34674A"/>
<stop offset="0.7521" stop-color="#244733"/>
<stop offset="0.7934" stop-color="#112319"/>
<stop offset="0.8261"/>
<stop offset="1" stop-color="#00AFA4"/>
</linearGradient>
<linearGradient id="paint1_linear_372_2589" x1="0.0035436" y1="28.6869" x2="71.6391" y2="28.6869" gradientUnits="userSpaceOnUse">
<stop stop-color="#60BE88"/>
<stop offset="1" stop-color="#00AFA4"/>
</linearGradient>
</defs>
</svg>
